#!OML:ASF F:\VICON\USERDATA\INSTALL\rory3\rory3.ASF
:FULLY-SPECIFIED
:DEGREES
68
root 1.015917995795883 18.177264207354657 15.06453966746972 -2.698197820473027 -5.588473470121097 0.5689725235834517
lfemur -6.0415957762448205 -3.550577190447931 -24.781370517158827
ltibia 28.120129536036877
lfoot -8.437345078090614 -1.9101763430836596
ltoes -9.159956914442928
rfemur -21.089644471926185 3.6839714013709277 21.48763471995314
rtibia 68.85314607545837
rfoot -7.101656438306504 -7.308071554974707
rtoes 8.305224644871949
lowerback 10.822861664001733 1.3913426157591353 0.46135571359650385
upperback 1.2084565003594583 1.8919052569353743 0.7640691540784539
thorax -5.144192315019242 0.8993371256057567 0.33393278045100416
lowerneck -15.464498718283947 -2.522971184235492 -1.8599206753693442
upperneck 24.448563998837347 -3.0520090597378164 0.01925060058901598
head 10.58492789444896 -1.6192554873909206 -0.3269920765391766
lclavicle -1.3933171572974348e-15 -1.8490775915545e-15
lhumerus -32.48348021732959 4.4253057059930025 79.84710819180394
lradius 27.947722334605825
lwrist 4.2049955853665715
lhand -25.915453708622778 24.036864802264958
lfingers 7.125019999999999
lthumb 0.463587679467393 53.75696324161265
rclavicle -1.3869549834189828e-15 -1.8438476010809377e-15
rhumerus -29.49890969956617 -22.42311364291311 -78.30799303291845
rradius 25.381384122315286
rwrist 5.616427373774365
rhand -17.92091873352235 21.864034484471322
rfingers 7.125019999999999
rthumb 8.440236310279932 -7.935772909259205
69
root 0.9495534961176968 18.15971997459954 16.35986709919242 -2.5964448161058917 -4.05036060975107 0.5060142290430076
lfemur -4.280484353954257 -3.2100801346662147 -25.059582346435818
ltibia 27.805389654940296
lfoot -8.476474546414087 -1.2686723293180844
ltoes -9.344053992650155
rfemur -23.60583915070884 2.2578864065461275 21.14054585341092
rtibia 65.01800739577914
rfoot -7.057407177196519 -7.891842167957808
rtoes 8.494236125171524
lowerback 10.377079510805665 0.6274486373760235 -0.2219737429969113
upperback 1.1971497013837924 0.9221258376286801 0.8927767975051265
thorax -5.156862423032164 0.4490935797445682 0.954264754048297
lowerneck -15.45249248650523 -2.4767709185389273 -2.0492729780303307
upperneck 24.386192475375296 -2.9252502054426968 0.035730363862977274
head 10.542356761539263 -1.568891263273827 -0.27291267074416037
lclavicle -1.3933943656791885e-15 -1.8491238951325713e-15
lhumerus -31.918166557021188 3.411310315641466 79.99618774760329
lradius 29.13174841408095
lwrist 4.663579448537615
lhand -26.029192541226617 24.391213029497194
lfingers 7.125019999999999
lthumb 0.3402930896269114 54.13343183417335
rclavicle -1.3868686688015568e-15 -1.843633809147284e-15
rhumerus -30.23686783410854 -22.455594439060317 -77.9839058477628
rradius 25.253405817424856
rwrist 5.0242430468116
rhand -17.746931568950032 21.86813651349882
rfingers 7.125019999999999
rthumb 8.583881400809142 -7.953454915350689
70
root 0.7688454248703183 18.018415669617287 17.691500095180338 -2.2338294789119675 -1.8711945310766698 0.3149401698967038
lfemur -2.6866265445638016 -3.175289359012892 -24.84251371084274
ltibia 27.32249490939114
lfoot -8.671283515396642 -1.5351982984840533
ltoes -9.591673449705851
rfemur -26.51816124848882 0.9690982613392314 20.697859026515125
rtibia 59.63367467017734
rfoot -6.396636239589082 -8.98007872674049
rtoes 8.280036316709143
lowerback 10.315406648087336 -0.15434467183640466 -0.9771195132914359
upperback 0.9573246211974478 -0.12249208992394556 1.05857934160372
thorax -5.198505787822558 -0.048376495808350184 1.608036634192546
lowerneck -15.470165826615423 -2.5001640558272937 -2.307505027801981
upperneck 24.230708590684152 -2.9133948780865664 0.16470157805253016
head 10.470171909279573 -1.5546685182489886 -0.18550152675529563
lclavicle -1.3928303094789459e-15 -1.848581496454023e-15
lhumerus -31.32013602075432 2.601937729633919 80.07447118106042
lradius 30.26230841461887
lwrist 5.106575920414663
lhand -26.173471789825644 24.713178878290684
lfingers 7.125019999999999
lthumb 0.175347349089211 54.47453487294422
rclavicle -1.3872774712841733e-15 -1.8439456926954777e-15
rhumerus -31.081497243704675 -22.518562677281743 -77.60370641243375
rradius 25.21638632305195
rwrist 4.382019304334001
rhand -17.64546694931284 21.98787771718348
rfingers 7.125019999999999
rthumb 8.640058004909104 -7.84300554752312
71
root 0.6973495891416219 17.829288503837265 19.406809250404613 -2.1661990684579395 -0.007697133216308938 1.2503402572644666
lfemur -0.6851716607886171 -2.6898380644602913 -25.408593895608657
ltibia 26.264419267506703
lfoot -7.607515370036069 -1.243760841804381
ltoes -9.64813722653398
rfemur -28.579636902143328 0.14232659315586282 19.44203357281569
rtibia 52.41653233724192
rfoot -5.978139340401067 -10.693382886540702
rtoes 7.531393739240778
lowerback 10.819242877231744 -0.7658977194981158 -2.7138703768758736
upperback 0.7721200200789947 -1.1490166954818744 1.027663292597468
thorax -5.092888433724907 -0.5506787448790775 2.357753330771368
lowerneck -15.531840451131465 -2.591258992476305 -2.5896321023667026
upperneck 23.99512104865392 -3.0216861066094545 0.40302073769608393
head 10.378158553321205 -1.5793466871908204 -0.0702134724804133
lclavicle -1.3927021188699244e-15 -1.848468619668733e-15
lhumerus -30.60878277931885 1.927784314132795 80.17444196586148
lradius 31.12893084596499
lwrist 5.492844426674668
lhand -26.333397231782307 24.935044256241927
lfingers 7.125019999999999
lthumb -0.0018128536885166913 54.71081403647045
rclavicle -1.386967339610851e-15 -1.843605423555927e-15
rhumerus -31.874658095247757 -22.566417734490578 -77.22419585974504
rradius 25.125749889373317
rwrist 4.061287660609488
rhand -17.5961277555731 22.112511851508692
rfingers 7.125019999999999
rthumb 8.63442543634608 -7.7288745247608
72
root 0.5721900855970226 17.682080815781624 20.01610256597229 -1.9551359902429113 0.31368610926635565 1.778014321550177
lfemur 1.4639173486197485 -1.6328581721566613 -25.726215413429763
ltibia 24.859523937445672
lfoot -7.945342498450581 -1.6715781790124278
ltoes -10.28724321657636
rfemur -29.4062439001322 1.2953344781589742 18.767013956579923
rtibia 43.29594032480349
rfoot -5.535940830931951 -12.494641439686436
rtoes 6.462640144519348
lowerback 11.307373704749287 -0.8990207002351007 -3.6738213869506886
upperback 0.8311765150343384 -1.4721936592591165 0.985573417721387
thorax -4.851301019337778 -0.7079744806662729 2.9763430498723507
lowerneck -15.604585049827893 -2.728885436884468 -2.8620723191880746
upperneck 23.70943319326986 -3.2239816771494305 0.7529585686362178
head 10.271656599224785 -1.6361223754771839 0.07740905981027718
lclavicle -1.392368928177419e-15 -1.848156173815729e-15
lhumerus -29.966458140943775 1.3528448333637606 80.27432489958674
lradius 31.701328612987687
lwrist 5.754712608541456
lhand -26.488007199224498 25.054163373538746
lfingers 7.125019999999999
lthumb -0.14859229603596447 54.886939994468605
rclavicle -1.3844497600179991e-15 -1.8413728120848265e-15
rhumerus -32.64099151262262 -22.84284193205843 -76.9183769463395
rradius 24.920321157132054
rwrist 4.11037402545993
rhand -17.573423250405753 22.220810917473635
rfingers 7.125019999999999
rthumb 8.618662246682241 -7.578790517173596
